<svg xmlns="http://www.w3.org/2000/svg" viewBox="0 0 351.34 394.37"><defs><style>.cls-1,.cls-2{fill:none;stroke:#000;stroke-miterlimit:10;}.cls-1{stroke-width:4px;}</style></defs><title>Layer 1</title><g id="Layer_2" data-name="Layer 2"><g id="Layer_1-2" data-name="Layer 1"><path d="M283.28,118.82C277.35,39.67,185,0,185,0c5,15.7,10.52,34.84-5.71,46C146.52,68.65,120.36,71.11,98.15,95.8,37.66,163,93.91,235.71,93.91,235.71l25.78-.53c-1-12.17-.56-28.76,4.5-49,1.79-7.15,3.57-14.05,5.83-59.6l9.64,36.89.94-.3c6.3-3.15,15-4.79,23.35-5.62,8.28-1.37,17.1-2.05,24-.65l1,0-.29-38.13c14,43.39,17.56,49.59,21.15,56,12.12,21.74,18.61,37.94,18.89,55.3v2.79l20.8-.43S290.36,213.38,283.28,118.82Z"/><ellipse cx="201.22" cy="194.15" rx="4.73" ry="9.26" transform="translate(-23.75 28.1) rotate(-7.55)"/><ellipse cx="140.04" cy="201.9" rx="4.73" ry="9.26" transform="translate(-25.3 20.14) rotate(-7.55)"/><ellipse cx="174.16" cy="216.7" rx="9.26" ry="4.73" transform="translate(-26.95 24.74) rotate(-7.55)"/><path class="cls-1" d="M315.67,321.5a173.7,173.7,0,0,1-280,0"/><path class="cls-1" d="M2.18,226.57Q2,222.66,2,218.7a173.67,173.67,0,0,1,347.34,0q0,4-.18,7.87"/><path class="cls-2" d="M11.35,226.56q-.18-3.92-.18-7.86a164.27,164.27,0,0,1,328.54,0q0,4-.18,7.86"/><path class="cls-2" d="M303.8,321.5a164.29,164.29,0,0,1-256.25,0"/><path d="M137.41,326.16v4.18h5.46v-4.18h1.47v10h-1.47v-4.68h-5.46v4.68H136v-10Z"/><path d="M155.94,331.46h-4.39v3.6h4.89v1.08H150.1v-10h6.09v1.08h-4.64v3.16h4.39Z"/><path d="M161.39,326.16h1.46v8.9h4.82v1.08h-6.28Z"/><path d="M172.48,334.57a5.61,5.61,0,0,0,2.61.65c1.49,0,2.36-.7,2.36-1.7s-.6-1.47-2.13-2c-1.84-.58-3-1.42-3-2.83S173.8,326,176,326a5.65,5.65,0,0,1,2.49.49l-.4,1a4.93,4.93,0,0,0-2.14-.47c-1.54,0-2.13.81-2.13,1.5,0,.93.69,1.39,2.24,1.93,1.91.65,2.88,1.47,2.88,2.93s-1.29,2.87-4,2.87a6.36,6.36,0,0,1-2.88-.64Z"/><path d="M185.43,326.16v10H184v-10Z"/><path d="M191.16,336.14v-10h1.59l3.62,5.05a27.86,27.86,0,0,1,2,3.24h0a40.34,40.34,0,0,1-.17-4.1v-4.18h1.37v10h-1.47l-3.58-5.07a30.52,30.52,0,0,1-2.11-3.33h-.05c.08,1.26.12,2.46.12,4.12v4.27Z"/><path d="M205.4,326.16h1.46V331h0c.3-.38.6-.74.89-1.07l3.45-3.75h1.81L209,330.4l4.4,5.75h-1.72l-3.72-4.9-1.07,1.1v3.81H205.4v-10Z"/><path d="M219.29,326.16v10h-1.46v-10Z"/><path d="M181.88,364.37c1,4,1,5,1,6s2.71-1.4,6.65-4.24c6.11-4.41,6.76-12.21,4-14.62a3.66,3.66,0,0,0-2-.84c-.59,2.54-1.44,5.73-7,11.1"/><path d="M181.88,363.37c1,0,9.67-12.7,9.67-12.7-3.17-.41-10,2.28-12.67,7.7"/><path d="M178.29,358.55c-3.26-5.1-7.64-8.39-10.83-8.47l8.7,16.23a25.48,25.48,0,0,1,3.91,7.29C183.14,371.63,182.35,364.89,178.29,358.55Z"/><path d="M171.38,359.87c-3.34-7.24-4.72-7.19-4.92-9.79a3.69,3.69,0,0,0-2.09.53c-3.08,2-2.28,8.71,1.78,15.05s9.84,9.9,12.92,7.93l-3.91-7.29A44.39,44.39,0,0,1,171.38,359.87Z"/><path d="M11.18,303.35v-5.43h5.94V251.61H11.18v-5.43h17.9v5.43H23.14v46.31h5.94v5.43ZM33.07,274,56,297.92h4.58v5.43H43.08v-5.43h4.5l-22-23.66V274l22.14-22.39h-5v-5.43H60.4v5.43H55.65Z"/><path d="M124.33,251.61h-5.94v-5.43h17.73v5.43h-5.94v32.48c0,12.89-9.84,20.36-22.9,20.36-12.64,0-22.82-7.55-22.82-20.36V251.61H78.52v-5.43h17.9v5.43H90.48v32.57c0,10.09,7.8,15,16.79,15,9.75,0,17-5.09,17-14.93V251.61Z"/><path d="M201.78,297.92h5.6v5.43H198l-16.37-24H169.3v18.57h6v5.43h-18v-5.43h5.94V251.61h-5.94v-5.43H183.8c9.75,0,17.73,5.94,17.73,16.28,0,9.5-6.11,14.84-13.4,16ZM183,274.17c7.21,0,12.55-3.65,12.55-11.62,0-7-5.26-11.2-12-11.2H169.29v22.82Z"/><path d="M272.86,297.92h5.6v5.43h-9.41l-16.37-24h-12.3v18.57h6v5.43h-18v-5.43h5.94V251.61h-5.94v-5.43h26.46c9.75,0,17.73,5.94,17.73,16.28,0,9.5-6.11,14.84-13.4,16ZM254,274.17c7.21,0,12.55-3.65,12.55-11.62,0-7-5.26-11.2-12-11.2H240.37v22.82Z"/><path d="M322.82,283.25v-6.87H311.45v21.54h24.09V286h5.6v17.39H299.5v-5.43h5.94V251.61H299.5v-5.43h39.95v15.69h-5.6V251.61H311.46v19.51h11.37v-6h5.6v18.15Z"/></g></g></svg>