<svg xmlns="http://www.w3.org/2000/svg" viewBox="0 0 32.6 24.06"><title>Asset 1</title><g id="Layer_2" data-name="Layer 2"><g id="Layer_1-2" data-name="Layer 1"><path d="M19.38,14.29c1,4,1,5,1,6s2.71-1.4,6.65-4.24c6.11-4.41,6.76-12.21,4-14.62a3.66,3.66,0,0,0-2-.84c-.59,2.54-1.44,5.73-7,11.1"/><path d="M19.38,13.29c1,0,9.67-12.7,9.67-12.7-3.17-.41-10,2.28-12.67,7.7"/><path d="M15.79,8.47C12.53,3.37,8.15.08,5,0l8.7,16.23a25.48,25.48,0,0,1,3.91,7.29C20.64,21.55,19.85,14.81,15.79,8.47Z"/><path d="M8.88,9.79C5.54,2.55,4.16,2.6,4,0A3.69,3.69,0,0,0,1.87.53c-3.08,2-2.28,8.71,1.78,15.05s9.84,9.9,12.92,7.93l-3.91-7.29A44.39,44.39,0,0,1,8.88,9.79Z"/></g></g></svg>