<?xml version="1.0" encoding="utf-8"?>
<!-- Generator: Adobe Illustrator 23.0.2, SVG Export Plug-In . SVG Version: 6.00 Build 0)  -->
<svg version="1.1" id="Layer_1" xmlns="http://www.w3.org/2000/svg" xmlns:xlink="http://www.w3.org/1999/xlink" x="0px" y="0px"
	 viewBox="0 0 1366 768" style="enable-background:new 0 0 1366 768;" xml:space="preserve">
<style type="text/css">
	.st0{fill:none;stroke:#231F20;stroke-width:0.5;stroke-miterlimit:10;}
	.st1{fill:none;stroke:#000000;stroke-width:4;stroke-miterlimit:10;}
	.st2{fill:none;stroke:#231F20;stroke-miterlimit:10;}
	.st3{fill:none;stroke:#000000;stroke-miterlimit:10;}
	.st4{fill:#231F20;}
	.st5{fill:none;stroke:#FFFFFF;stroke-miterlimit:10;}
	.st6{fill:none;stroke:#231F20;stroke-width:2;stroke-miterlimit:10;}
</style>
<g>
	<g>
		<path d="M690,391c1,4,1,5,1,6c0,0.91,2.71-1.4,6.65-4.24c6.11-4.41,6.76-12.21,4.01-14.62c-0.54-0.47-1.21-0.74-1.98-0.84
			c-0.59,2.54-1.44,5.73-7,11.1"/>
		<path d="M690,390c1,0,9.67-12.7,9.67-12.7c-3.17-0.41-9.96,2.28-12.67,7.7"/>
	</g>
	<g>
		<path d="M686.41,385.18c-3.26-5.1-7.64-8.39-10.83-8.47l8.7,16.23c1.37,1.79,2.74,3.99,3.91,7.29
			C691.26,398.26,690.47,391.52,686.41,385.18z"/>
		<path d="M679.5,386.5c-3.34-7.24-4.72-7.19-4.92-9.79c-0.78-0.02-1.48,0.15-2.09,0.53c-3.08,1.97-2.28,8.71,1.78,15.05
			c4.06,6.35,9.84,9.9,12.92,7.93l-3.91-7.29C682.09,391.39,680.24,388.1,679.5,386.5z"/>
	</g>
</g>
</svg>
