<?xml version="1.0" encoding="utf-8"?>
<!-- Generator: Adobe Illustrator 23.0.2, SVG Export Plug-In . SVG Version: 6.00 Build 0)  -->
<svg version="1.1" id="Layer_1" xmlns="http://www.w3.org/2000/svg" xmlns:xlink="http://www.w3.org/1999/xlink" x="0px" y="0px"
	 viewBox="0 0 1366 768" style="enable-background:new 0 0 1366 768;" xml:space="preserve">
<style type="text/css">
	.st0{fill:none;stroke:#231F20;stroke-width:0.5;stroke-miterlimit:10;}
	.st1{fill:none;stroke:#000000;stroke-width:4;stroke-miterlimit:10;}
	.st2{fill:none;stroke:#231F20;stroke-miterlimit:10;}
	.st3{fill:none;stroke:#000000;stroke-miterlimit:10;}
	.st4{fill:#231F20;}
	.st5{fill:none;stroke:#FFFFFF;stroke-miterlimit:10;}
	.st6{fill:none;stroke:#231F20;stroke-width:2;stroke-miterlimit:10;}
	.st7{stroke:#FFFFFF;stroke-miterlimit:10;}
	.st8{fill:#FFFFFF;}
</style>
<g>
	<g>
		<path d="M811.4,306.45c-5.93-79.15-98.29-118.82-98.29-118.82c5.01,15.7,10.52,34.84-5.71,46.04
			c-32.76,22.61-58.92,25.07-81.13,49.76c-60.49,67.24-4.24,139.91-4.24,139.91l25.78-0.53c-1-12.17-0.56-28.76,4.5-48.99
			c1.79-7.15,3.57-14.05,5.83-59.6l9.64,36.89c0.26-0.08,0.58-0.18,0.94-0.3c6.3-3.15,15-4.79,23.35-5.62
			c8.28-1.37,17.1-2.05,24.01-0.65c0.38,0.01,0.72,0.03,0.99,0.04l-0.29-38.13c14.04,43.39,17.56,49.59,21.15,56.03
			c12.12,21.74,18.61,37.94,18.89,55.3v2.79l20.8-0.43C777.62,420.14,818.48,401.01,811.4,306.45z"/>
		<ellipse transform="matrix(0.9913 -0.1313 0.1313 0.9913 -43.8154 99.0702)" cx="729.37" cy="381.8" rx="4.73" ry="9.26"/>
		<ellipse transform="matrix(0.9913 -0.1313 0.1313 0.9913 -45.3626 91.1053)" cx="668.19" cy="389.55" rx="4.73" ry="9.26"/>
		<g>
			<ellipse transform="matrix(0.9913 -0.1313 0.1313 0.9913 -47.0106 95.7125)" cx="702.31" cy="404.35" rx="9.26" ry="4.73"/>
		</g>
	</g>
	<path class="st1" d="M843.79,509.13C812.17,552.11,761.24,580,703.8,580c-57.44,0-108.38-27.89-139.99-70.87"/>
	<path class="st1" d="M530.3,414.2c-0.12-2.61-0.18-5.23-0.18-7.87c0-95.92,77.76-173.67,173.67-173.67s173.67,77.76,173.67,173.67
		c0,2.64-0.06,5.26-0.18,7.87"/>
	<path class="st3" d="M539.47,414.19c-0.12-2.61-0.18-5.23-0.18-7.86c0-90.72,73.54-164.27,164.27-164.27
		s164.27,73.54,164.27,164.27c0,2.64-0.06,5.26-0.18,7.86"/>
	<path class="st3" d="M831.92,509.13c-30.11,37.47-76.32,61.46-128.13,61.46c-51.81,0-98.01-23.98-128.12-61.45"/>
	<g>
		<path class="st4" d="M665.53,513.79v4.18h5.46v-4.18h1.47v9.99h-1.47v-4.68h-5.46v4.68h-1.46v-9.99H665.53z"/>
		<path class="st4" d="M684.06,519.09h-4.39v3.6h4.89v1.08h-6.34v-9.99h6.09v1.08h-4.64v3.16h4.39V519.09z"/>
		<path class="st4" d="M689.51,513.79h1.46v8.9h4.82v1.08h-6.28V513.79z"/>
		<path class="st4" d="M700.6,522.2c0.65,0.36,1.61,0.65,2.61,0.65c1.49,0,2.36-0.7,2.36-1.7c0-0.93-0.6-1.47-2.13-1.99
			c-1.84-0.58-2.98-1.42-2.98-2.83c0-1.56,1.46-2.71,3.65-2.71c1.16,0,1.99,0.24,2.49,0.49l-0.4,1.05
			c-0.37-0.18-1.12-0.47-2.14-0.47c-1.54,0-2.13,0.81-2.13,1.5c0,0.93,0.69,1.39,2.24,1.93c1.91,0.65,2.88,1.47,2.88,2.93
			c0,1.54-1.29,2.87-3.95,2.87c-1.09,0-2.28-0.28-2.88-0.64L700.6,522.2z"/>
		<path class="st4" d="M713.55,513.79v9.99h-1.46v-9.99H713.55z"/>
		<path class="st4" d="M719.28,523.77v-9.99h1.59l3.62,5.05c0.84,1.17,1.49,2.22,2.03,3.24l0.03-0.01c-0.13-1.33-0.17-2.55-0.17-4.1
			v-4.18h1.37v9.99h-1.47l-3.58-5.07c-0.79-1.11-1.54-2.25-2.11-3.33l-0.05,0.01c0.08,1.26,0.12,2.46,0.12,4.12v4.27H719.28z"/>
		<path class="st4" d="M733.52,513.79h1.46v4.82h0.05c0.3-0.38,0.6-0.74,0.89-1.07l3.45-3.75h1.81l-4.09,4.24l4.4,5.75h-1.72
			l-3.72-4.9l-1.07,1.1v3.81h-1.46V513.79z"/>
		<path class="st4" d="M747.41,513.79v9.99h-1.46v-9.99H747.41z"/>
	</g>
	<g>
		<g>
			<path d="M710,552c1,4,1,5,1,6c0,0.91,2.71-1.4,6.65-4.24c6.11-4.41,6.76-12.21,4.01-14.62c-0.54-0.47-1.21-0.74-1.98-0.84
				c-0.59,2.54-1.44,5.73-7,11.1"/>
			<path d="M710,551c1,0,9.67-12.7,9.67-12.7c-3.17-0.41-9.96,2.28-12.67,7.7"/>
		</g>
		<g>
			<path d="M706.41,546.18c-3.26-5.1-7.64-8.39-10.83-8.47l8.7,16.23c1.37,1.79,2.74,3.99,3.91,7.29
				C711.26,559.26,710.47,552.52,706.41,546.18z"/>
			<path d="M699.5,547.5c-3.34-7.24-4.72-7.19-4.92-9.79c-0.78-0.02-1.48,0.15-2.09,0.53c-3.08,1.97-2.28,8.71,1.78,15.05
				c4.06,6.35,9.84,9.9,12.92,7.93l-3.91-7.29C702.09,552.39,700.24,549.1,699.5,547.5z"/>
		</g>
	</g>
	<g>
		<path d="M539.3,490.98v-5.43h5.94v-46.31h-5.94v-5.43h17.9v5.43h-5.94v46.31h5.94v5.43H539.3z M561.19,461.63l22.9,23.92h4.58
			v5.43h-17.47v-5.43h4.5l-22.05-23.66v-0.25l22.14-22.39h-5v-5.43h17.73v5.43h-4.75L561.19,461.63z"/>
		<path d="M652.45,439.24h-5.94v-5.43h17.73v5.43h-5.94v32.48c0,12.89-9.84,20.36-22.9,20.36c-12.64,0-22.82-7.55-22.82-20.36
			v-32.48h-5.94v-5.43h17.9v5.43h-5.94v32.57c0,10.09,7.8,15.01,16.79,15.01c9.75,0,17.05-5.09,17.05-14.93V439.24z"/>
		<path d="M729.9,485.55h5.6v5.43h-9.41l-16.37-24h-12.3v18.57h6.02v5.43h-17.98v-5.43h5.94v-46.31h-5.94v-5.43h26.46
			c9.75,0,17.73,5.94,17.73,16.28c0,9.5-6.11,14.84-13.4,16.03L729.9,485.55z M711.07,461.8c7.21,0,12.55-3.65,12.55-11.62
			c0-6.95-5.26-11.2-11.96-11.2h-14.25v22.82H711.07z"/>
		<path d="M800.98,485.55h5.6v5.43h-9.41l-16.37-24h-12.3v18.57h6.02v5.43h-17.98v-5.43h5.94v-46.31h-5.94v-5.43h26.46
			c9.75,0,17.73,5.94,17.73,16.28c0,9.5-6.11,14.84-13.4,16.03L800.98,485.55z M782.15,461.8c7.21,0,12.55-3.65,12.55-11.62
			c0-6.95-5.26-11.2-11.96-11.2h-14.25v22.82H782.15z"/>
		<path d="M850.94,470.88v-6.87h-11.37v21.54h24.09v-11.96h5.6v17.39h-41.64v-5.43h5.94v-46.31h-5.94v-5.43h39.95v15.69h-5.6v-10.26
			h-22.39v19.51h11.37v-6.02h5.6v18.15H850.94z"/>
	</g>
	<path class="st6" d="M528.94,412.68c-0.12-2.61-0.18-5.23-0.18-7.87c0-95.92,77.76-173.67,173.67-173.67
		c4.93,0,9.82,0.21,14.65,0.61"/>
</g>
</svg>
