<?xml version="1.0" encoding="utf-8"?>
<!-- Generator: Adobe Illustrator 23.0.2, SVG Export Plug-In . SVG Version: 6.00 Build 0)  -->
<svg version="1.1" id="Layer_1" xmlns="http://www.w3.org/2000/svg" xmlns:xlink="http://www.w3.org/1999/xlink" x="0px" y="0px"
	 viewBox="0 0 1366 768" style="enable-background:new 0 0 1366 768;" xml:space="preserve">
<style type="text/css">
	.st0{fill:#FFFFFF;}
	.st1{fill:none;stroke:#231F20;stroke-width:0.5;stroke-miterlimit:10;}
	.st2{fill:none;stroke:#000000;stroke-width:4;stroke-miterlimit:10;}
	.st3{fill:none;stroke:#231F20;stroke-miterlimit:10;}
	.st4{fill:none;stroke:#000000;stroke-miterlimit:10;}
	.st5{fill:#231F20;}
	.st6{stroke:#FFFFFF;stroke-miterlimit:10;}
	.st7{fill:none;stroke:#FFFFFF;stroke-miterlimit:10;}
	.st8{fill:none;stroke:#231F20;stroke-width:2;stroke-miterlimit:10;}
</style>
<g>
	<g>
		<path d="M622.03,423.33c0,0-56.25-72.67,4.24-139.91c22.21-24.69,48.36-27.15,81.13-49.76c16.22-11.19,10.72-30.33,5.71-46.04
			c0,0,92.36,39.67,98.29,118.82c7.08,94.56-33.78,113.68-33.78,113.68L622.03,423.33z"/>
		<path class="st0" d="M751.12,426.68c3.06-0.68,5.7-0.1,5.7-0.1v-8.8c-0.28-17.36-6.77-33.56-18.89-55.3
			c-3.59-6.44-7.1-12.63-21.15-56.03l0.29,38.13c-0.27-0.01-0.61-0.03-0.99-0.04c-6.9-1.4-15.73-0.72-24.01,0.65
			c-8.35,0.83-17.05,2.47-23.35,5.62c-0.36,0.11-0.69,0.22-0.94,0.3l-9.64-36.89c-2.26,45.55-4.04,52.45-5.83,59.6
			c-6.04,24.15-5.5,43.14-3.78,55.59l-2.7,11.43c0,0,1.8-0.07,4.93-0.21c2.61,4.33,27.79,1.13,53.5-3.43
			C730.27,434.9,749.73,431.55,751.12,426.68z"/>
		<ellipse transform="matrix(0.9913 -0.1313 0.1313 0.9913 -43.8154 99.0702)" cx="729.37" cy="381.8" rx="4.73" ry="9.26"/>
		<ellipse transform="matrix(0.9913 -0.1313 0.1313 0.9913 -45.3626 91.1053)" cx="668.19" cy="389.55" rx="4.73" ry="9.26"/>
		<g>
			<ellipse transform="matrix(0.9913 -0.1313 0.1313 0.9913 -47.0106 95.7125)" cx="702.31" cy="404.35" rx="9.26" ry="4.73"/>
			<path class="st1" d="M705.14,400.42"/>
		</g>
	</g>
	<path class="st2" d="M843.79,509.13C812.17,552.11,761.24,580,703.8,580c-57.44,0-108.38-27.89-139.99-70.87"/>
	<path class="st2" d="M530.3,414.2c-0.12-2.61-0.18-5.23-0.18-7.87c0-95.92,77.76-173.67,173.67-173.67s173.67,77.76,173.67,173.67
		c0,2.64-0.06,5.26-0.18,7.87"/>
	<path class="st3" d="M831.92,509.13"/>
	<path class="st3" d="M867.88,414.19"/>
	<path class="st4" d="M539.47,414.19c-0.12-2.61-0.18-5.23-0.18-7.86c0-90.72,73.54-164.27,164.27-164.27
		s164.27,73.54,164.27,164.27c0,2.64-0.06,5.26-0.18,7.86"/>
	<path class="st4" d="M831.92,509.13c-30.11,37.47-76.32,61.46-128.13,61.46c-51.81,0-98.01-23.98-128.12-61.45"/>
	<g>
		<path class="st5" d="M665.53,513.79v4.18h5.46v-4.18h1.47v9.99h-1.47v-4.68h-5.46v4.68h-1.46v-9.99H665.53z"/>
		<path class="st5" d="M684.06,519.09h-4.39v3.6h4.89v1.08h-6.34v-9.99h6.09v1.08h-4.64v3.16h4.39V519.09z"/>
		<path class="st5" d="M689.51,513.79h1.46v8.9h4.82v1.08h-6.28V513.79z"/>
		<path class="st5" d="M700.6,522.2c0.65,0.36,1.61,0.65,2.61,0.65c1.49,0,2.36-0.7,2.36-1.7c0-0.93-0.6-1.47-2.13-1.99
			c-1.84-0.58-2.98-1.42-2.98-2.83c0-1.56,1.46-2.71,3.65-2.71c1.16,0,1.99,0.24,2.49,0.49l-0.4,1.05
			c-0.37-0.18-1.12-0.47-2.14-0.47c-1.54,0-2.13,0.81-2.13,1.5c0,0.93,0.69,1.39,2.24,1.93c1.91,0.65,2.88,1.47,2.88,2.93
			c0,1.54-1.29,2.87-3.95,2.87c-1.09,0-2.28-0.28-2.88-0.64L700.6,522.2z"/>
		<path class="st5" d="M713.55,513.79v9.99h-1.46v-9.99H713.55z"/>
		<path class="st5" d="M719.28,523.77v-9.99h1.59l3.62,5.05c0.84,1.17,1.49,2.22,2.03,3.24l0.03-0.01c-0.13-1.33-0.17-2.55-0.17-4.1
			v-4.18h1.37v9.99h-1.47l-3.58-5.07c-0.79-1.11-1.54-2.25-2.11-3.33l-0.05,0.01c0.08,1.26,0.12,2.46,0.12,4.12v4.27H719.28z"/>
		<path class="st5" d="M733.52,513.79h1.46v4.82h0.05c0.3-0.38,0.6-0.74,0.89-1.07l3.45-3.75h1.81l-4.09,4.24l4.4,5.75h-1.72
			l-3.72-4.9l-1.07,1.1v3.81h-1.46V513.79z"/>
		<path class="st5" d="M747.41,513.79v9.99h-1.46v-9.99H747.41z"/>
	</g>
	<g>
		<g>
			
				<ellipse transform="matrix(0.6587 -0.7524 0.7524 0.6587 -170.1345 723.7715)" class="st6" cx="712.67" cy="549.41" rx="13.64" ry="6.61"/>
			<g>
				<path d="M703.69,559.67c3.08-5.76,6.26-7.63,8.98-10.26c5.56-5.37,6.41-8.57,7-11.11"/>
				<g>
					<path class="st0" d="M704.12,560.12c4.48-7.9,13.78-12.15,15.99-21.37c0.07-0.3-0.89-0.79-0.86-0.9
						c-2.21,9.22-11.51,13.48-15.99,21.37C703.15,559.41,704.12,560.12,704.12,560.12L704.12,560.12z"/>
				</g>
			</g>
		</g>
		<g>
			
				<ellipse transform="matrix(0.8426 -0.5386 0.5386 0.8426 -185.7513 464.0318)" class="st6" cx="700.84" cy="549.74" rx="6.61" ry="13.64"/>
			<g>
				<path d="M708.18,561.23c-2.19-6.16-5.05-8.48-7.35-11.49c-4.7-6.15-5.05-9.44-5.26-12.03"/>
				<g>
					<path class="st0" d="M708.74,561.28c-3.25-8.43-11.78-14.06-12.58-23.43c-0.04-0.42-1.22-0.77-1.18-0.29
						c0.81,9.5,9.37,15.13,12.64,23.62C707.77,561.55,708.95,561.83,708.74,561.28L708.74,561.28z"/>
				</g>
			</g>
		</g>
	</g>
	<g>
		<path d="M539.3,490.98v-5.43h5.94v-46.31h-5.94v-5.43h17.9v5.43h-5.94v46.31h5.94v5.43H539.3z M561.19,461.63l22.9,23.92h4.58
			v5.43h-17.47v-5.43h4.5l-22.05-23.66v-0.25l22.14-22.39h-5v-5.43h17.73v5.43h-4.75L561.19,461.63z"/>
		<path d="M652.45,439.24h-5.94v-5.43h17.73v5.43h-5.94v32.48c0,12.89-9.84,20.36-22.9,20.36c-12.64,0-22.82-7.55-22.82-20.36
			v-32.48h-5.94v-5.43h17.9v5.43h-5.94v32.57c0,10.09,7.8,15.01,16.79,15.01c9.75,0,17.05-5.09,17.05-14.93V439.24z"/>
		<path d="M729.9,485.55h5.6v5.43h-9.41l-16.37-24h-12.3v18.57h6.02v5.43h-17.98v-5.43h5.94v-46.31h-5.94v-5.43h26.46
			c9.75,0,17.73,5.94,17.73,16.28c0,9.5-6.11,14.84-13.4,16.03L729.9,485.55z M711.07,461.8c7.21,0,12.55-3.65,12.55-11.62
			c0-6.95-5.26-11.2-11.96-11.2h-14.25v22.82H711.07z"/>
		<path d="M800.98,485.55h5.6v5.43h-9.41l-16.37-24h-12.3v18.57h6.02v5.43h-17.98v-5.43h5.94v-46.31h-5.94v-5.43h26.46
			c9.75,0,17.73,5.94,17.73,16.28c0,9.5-6.11,14.84-13.4,16.03L800.98,485.55z M782.15,461.8c7.21,0,12.55-3.65,12.55-11.62
			c0-6.95-5.26-11.2-11.96-11.2h-14.25v22.82H782.15z"/>
		<path d="M850.94,470.88v-6.87h-11.37v21.54h24.09v-11.96h5.6v17.39h-41.64v-5.43h5.94v-46.31h-5.94v-5.43h39.95v15.69h-5.6v-10.26
			h-22.39v19.51h11.37v-6.02h5.6v18.15H850.94z"/>
	</g>
	<path class="st7" d="M866.7,405.56"/>
	<path class="st8" d="M528.94,412.68c-0.12-2.61-0.18-5.23-0.18-7.87c0-95.92,77.76-173.67,173.67-173.67
		c4.93,0,9.82,0.21,14.65,0.61"/>
</g>
</svg>
