<svg xmlns="http://www.w3.org/2000/svg" viewBox="0 0 286.29 279.66"><defs><style>.cls-1,.cls-2{fill:none;stroke:#231f20;stroke-miterlimit:10;}.cls-1{stroke-width:7px;}.cls-3{fill:#fff;}.cls-4{fill:#231f20;}</style></defs><title>Layer 1</title><g id="Layer_2" data-name="Layer 2"><g id="Layer_1-2" data-name="Layer 1"><ellipse class="cls-1" cx="148.22" cy="139.83" rx="124.51" ry="136.33"/><ellipse class="cls-2" cx="148.22" cy="139.83" rx="117.77" ry="128.95"/><rect class="cls-3" y="175.06" width="286.29" height="57.88"/><path class="cls-4" d="M120.79,231.74v2.55h3.91v-2.55h1.06v6.09H124.7V235h-3.91v2.85h-1.05v-6.09Z"/><path class="cls-4" d="M134.07,235h-3.15v2.19h3.5v.66h-4.54v-6.09h4.36v.66h-3.33v1.92h3.15V235Z"/><path class="cls-4" d="M138,231.74h1v5.43h3.46v.66H138Z"/><path class="cls-4" d="M145.93,236.87a4.54,4.54,0,0,0,1.87.4c1.06,0,1.69-.43,1.69-1s-.43-.9-1.52-1.21c-1.33-.35-2.14-.87-2.14-1.73s1-1.65,2.62-1.65a4.46,4.46,0,0,1,1.78.3l-.29.64a4,4,0,0,0-1.54-.29c-1.1,0-1.52.5-1.52.91,0,.57.49.85,1.61,1.18,1.37.4,2.06.9,2.06,1.79s-.92,1.75-2.83,1.75a5.22,5.22,0,0,1-2.07-.39Z"/><path class="cls-4" d="M155.21,231.74v6.09h-1.05v-6.09Z"/><path class="cls-4" d="M159.32,237.83v-6.09h1.14l2.59,3.08a16.91,16.91,0,0,1,1.45,2h0a21.6,21.6,0,0,1-.12-2.5v-2.55h1v6.09h-1l-2.58-3.09a18.66,18.66,0,0,1-1.51-2h0c.06.77.08,1.5.08,2.51v2.6Z"/><path class="cls-4" d="M169.53,231.74h1v2.93h0c.21-.23.43-.45.63-.64l2.47-2.29H175l-2.93,2.58,3.16,3.51H174l-2.66-3-.77.67v2.32h-1v-6.09Z"/><path class="cls-4" d="M179.49,231.74v6.09h-1.05v-6.09Z"/><ellipse class="cls-4" cx="154.27" cy="253.49" rx="9.02" ry="4.37" transform="translate(-128.96 164.94) rotate(-41.31)"/><path class="cls-3" d="M148.19,259.71c3.22-4.82,9.9-7.43,11.49-13.08.06-.21-.75-.11-.81.11-1.58,5.58-8.24,8.19-11.44,13-.16.25.64.16.76,0Z"/><ellipse class="cls-4" cx="145.8" cy="253.68" rx="4.48" ry="8.8" transform="translate(-128.79 152.61) rotate(-39.9)"/><path class="cls-3" d="M151.45,260.58c-2.34-5.16-8.47-8.61-9-14.35,0-.19-.84,0-.82.19.58,5.77,6.7,9.18,9,14.35.1.21.91,0,.82-.19Z"/><path class="cls-4" d="M169.18,29.68c.15,8.68,8.91,17.17-14.17,31-25.76,15.45-41.76,12-64.23,33.52-34.63,33.14-20.63,67.94-10.45,84.44H112c-.69-6.45-.73-19.4,7.14-36.3,1.82-3.91,3.61-7.68,9.13-33.29l3.16,21.6.66-.09c4.47-1.31,10.4-1.59,16-1.43,5.63-.16,11.56.12,16,1.43l.65.09,3.17-21.6c5.52,25.61,7.31,29.38,9.13,33.29,7.87,16.9,7.83,29.85,7.14,36.3H211c11.64-14.7,23.32-47.09,17.76-81.74-8.52-53-59.55-67.22-59.55-67.22"/><ellipse class="cls-4" cx="169.06" cy="156.77" rx="3.18" ry="5.29"/><ellipse class="cls-4" cx="129.45" cy="156.77" rx="3.18" ry="5.29"/><ellipse class="cls-4" cx="149.44" cy="169.77" rx="6.22" ry="2.7"/><path d="M24.42,222.29v-3.42h4.83V189.64H24.42v-3.43H39v3.43H34.16v29.23H39v3.42Zm17.82-18.52,18.64,15.1h3.73v3.42H50.38v-3.42H54L36.09,203.93v-.16l18-14.13H50v-3.43H64.47v3.43H60.6Z"/><path d="M113.09,189.64h-4.83v-3.43h14.43v3.43h-4.83v20.5c0,8.14-8,12.84-18.64,12.84-10.3,0-18.58-4.76-18.58-12.84v-20.5H75.81v-3.43H90.38v3.43H85.55V210.2c0,6.36,6.35,9.47,13.67,9.47,8,0,13.88-3.21,13.88-9.42V189.64Z"/><path d="M172.7,218.87h4.56v3.42h-7.67l-13.33-15.14h-10v11.72h4.91v3.43H136.51v-3.43h4.83V189.65h-4.83v-3.43h21.55c7.94,0,14.43,3.75,14.43,10.28,0,6-5,9.36-10.91,10.11Zm-15.33-15c5.87,0,10.22-2.3,10.22-7.33,0-4.39-4.28-7.07-9.74-7.07H146.24v14.4Z"/><path d="M227.12,218.87h4.56v3.42H224l-13.33-15.14h-10v11.72h4.9v3.43H190.92v-3.43h4.84V189.65h-4.84v-3.43h21.55c7.95,0,14.43,3.75,14.43,10.28,0,6-5,9.36-10.9,10.11Zm-15.33-15c5.87,0,10.22-2.3,10.22-7.33,0-4.39-4.28-7.07-9.74-7.07h-11.6v14.4Z"/><path d="M264.35,209.61v-4.33h-9.26v13.59h19.62v-7.54h4.56v11H245.36v-3.43h4.83V189.65h-4.83v-3.43h32.53v9.9h-4.56v-6.47H255.1V202h9.25v-3.8h4.56v11.45Z"/></g></g></svg>